<?xml version="1.0" encoding="UTF-8" standalone="no"?>
<!-- Created with Inkscape (http://www.inkscape.org/) -->

<svg
   width="60.959999mm"
   height="128.5mm"
   viewBox="0 0 60.959999 128.5"
   version="1.1"
   id="svg10812"
   inkscape:version="1.4.4 (dcaf3e7, 2026-05-05)"
   sodipodi:docname="seq1.svg"
   xml:space="preserve"
   xmlns:inkscape="http://www.inkscape.org/namespaces/inkscape"
   xmlns:sodipodi="http://sodipodi.sourceforge.net/DTD/sodipodi-0.dtd"
   xmlns="http://www.w3.org/2000/svg"
   xmlns:svg="http://www.w3.org/2000/svg"
   xmlns:rdf="http://www.w3.org/1999/02/22-rdf-syntax-ns#"
   xmlns:cc="http://creativecommons.org/ns#"
   xmlns:dc="http://purl.org/dc/elements/1.1/"><defs
     id="defs10806" /><sodipodi:namedview
     id="base"
     pagecolor="#ffffff"
     bordercolor="#666666"
     borderopacity="1.0"
     inkscape:pageopacity="0.0"
     inkscape:pageshadow="2"
     inkscape:zoom="1.2607129"
     inkscape:cx="77.337195"
     inkscape:cy="239.1504"
     inkscape:document-units="mm"
     inkscape:current-layer="layer1"
     showgrid="false"
     inkscape:window-width="1440"
     inkscape:window-height="900"
     inkscape:window-x="0"
     inkscape:window-y="0"
     inkscape:window-maximized="0"
     inkscape:showpageshadow="2"
     inkscape:pagecheckerboard="0"
     inkscape:deskcolor="#d1d1d1" /><metadata
     id="metadata10809"><rdf:RDF><cc:Work
         rdf:about=""><dc:format>image/svg+xml</dc:format><dc:type
           rdf:resource="http://purl.org/dc/dcmitype/StillImage" /><dc:title /></cc:Work></rdf:RDF></metadata><g
     inkscape:label="Livello 1"
     inkscape:groupmode="layer"
     id="layer1"
     transform="translate(0,-168.5)"><path
       style="opacity:1;fill:#000000;fill-opacity:1;fill-rule:nonzero;stroke-width:0.18908931;paint-order:markers fill stroke"
       d="M 3.959961e-7,168.5 H 60.959999 V 297 H 3.959961e-7 Z"
       id="rect11357-8" /><g
       id="g5257-4"
       style="fill:#ffffff"
       transform="matrix(0.4010284,0,0,0.4010284,17.930478,221.29515)"><path
         style="opacity:1;fill:#ffffff;fill-opacity:1;fill-rule:nonzero;stroke:none;stroke-width:0.38437614;stroke-linecap:round;stroke-linejoin:round;stroke-miterlimit:4;stroke-dasharray:none;stroke-opacity:1;paint-order:markers fill stroke"
         d="m 31.893867,169.53073 h 1.938196 v 1.22461 h -1.938196 z"
         id="rect5243-6" /><path
         id="path5245-5"
         transform="scale(0.26458333)"
         d="m 109.91797,647.20898 0.0879,5.65625 c 0.098,13.42379 0.09,13.36844 2.08594,15.44922 1.09452,1.14104 2.0996,1.7134 3.64843,2.07813 4.55793,1.07327 9.25156,-0.42861 10.78321,-3.45117 1.1549,-2.27913 1.34153,-4.45567 1.34375,-15.69141 l 0.002,-4.04102 h -3.67187 -3.67383 v 4.63672 c 0,0.56189 0.008,0.80014 0.01,1.3125 h 2.00977 v 2 h -7.67578 v -2 h 2.125 c 0.002,-0.64794 0.006,-0.97909 0.006,-1.70703 v -4.24219 h -3.53907 z m 4.94922,9.24414 h 7.67578 v 2 h -1.97266 c 0.0522,5.47203 -0.0378,5.83594 -1.73828,5.83594 -1.68087,0 -1.86827,-0.40351 -1.85937,-5.83594 h -2.10547 z"
         style="fill:#ffffff;stroke-width:0.29379341"
         inkscape:connector-curvature="0" /><path
         inkscape:connector-curvature="0"
         d="m 21.345763,172.52252 c 0.145831,-0.14583 0.237832,-0.71979 0.16704,-1.0421 -0.07292,-0.33201 -0.236995,-0.47276 -0.55108,-0.47276 h -0.266512 v 0.81619 0.81619 h 0.266512 c 0.146582,0 0.3194,-0.0529 0.38404,-0.11752 z m 0.04904,3.22684 c 0.127827,-0.12783 0.155464,-0.25911 0.155464,-0.73846 0,-0.68902 -0.133638,-0.89393 -0.582995,-0.89393 h -0.272064 v 0.89393 0.89392 h 0.272064 c 0.16842,0 0.331291,-0.0592 0.427531,-0.15546 z m -2.487451,-2.3004 v -3.93265 l 1.457492,0.0267 c 1.419024,0.026 1.469389,0.0326 1.908416,0.24814 0.688964,0.3383 0.863468,0.65301 0.897228,1.61808 0.02327,0.6651 0.0043,0.80944 -0.147517,1.12306 -0.105721,0.21839 -0.278466,0.42139 -0.439397,0.51634 l -0.265187,0.15646 0.29932,0.13401 c 0.379616,0.16996 0.69671,0.54457 0.775623,0.91632 0.03377,0.15906 0.0572,0.60981 0.05208,1.00166 -0.01087,0.83176 -0.182775,1.28389 -0.62754,1.6505 -0.4558,0.37571 -0.982906,0.4743 -2.535856,0.4743 h -1.37466 z"
         style="fill:#ffffff;stroke-width:0.07773284"
         id="path5247-7" /><path
         inkscape:connector-curvature="0"
         d="m 26.525174,173.10644 c 0.134737,-0.13473 0.155464,-0.25911 0.155464,-0.93279 0,-0.90044 -0.100618,-1.08826 -0.582995,-1.08826 h -0.272064 v 1.08826 1.08826 h 0.272064 c 0.16842,0 0.33129,-0.0592 0.427531,-0.15547 z m -2.565184,0.3498 v -3.92551 h 1.38286 c 2.006738,0 2.579582,0.19123 3.047912,1.01748 0.178639,0.31516 0.194333,0.42132 0.194333,1.31451 0,0.89214 -0.01589,1.00004 -0.194333,1.31845 -0.106885,0.19073 -0.31019,0.42482 -0.451792,0.5202 l -0.25746,0.17342 0.237264,0.12269 c 0.430884,0.22282 0.562853,0.62847 0.632514,1.94422 0.03401,0.64239 0.08551,1.2292 0.114436,1.30402 0.04839,0.12514 -0.02585,0.13603 -0.927374,0.13603 h -0.979977 l -0.0063,-0.25263 c -0.0035,-0.13895 -0.03082,-0.67869 -0.06076,-1.19942 -0.06212,-1.08075 -0.151812,-1.2686 -0.605681,-1.2686 H 25.82557 v 1.36033 1.36032 h -0.932794 -0.932795 z"
         style="fill:#ffffff;stroke-width:0.07773284"
         id="path5249-8" /><path
         inkscape:connector-curvature="0"
         id="path5251-3"
         d="m 34.531656,173.45624 v -3.92551 h 1.904454 1.904455 v 0.85506 0.85506 h -0.97166 -0.97166 v 0.66073 0.66073 h 0.855062 0.855059 v 0.8162 0.81619 h -0.855059 -0.855062 v 0.73846 0.73847 h 0.97166 0.97166 v 0.85506 0.85506 H 36.43611 34.531656 Z"
         style="fill:#ffffff;stroke-width:0.07773284" /><path
         inkscape:connector-curvature="0"
         d="m 41.527612,173.10644 c 0.134737,-0.13473 0.155467,-0.25911 0.155467,-0.93279 0,-0.90044 -0.100621,-1.08826 -0.582998,-1.08826 h -0.272064 v 1.08826 1.08826 h 0.272064 c 0.168423,0 0.33129,-0.0592 0.427531,-0.15547 z m -2.565184,0.3498 v -3.92551 h 1.38286 c 2.006738,0 2.579585,0.19123 3.047913,1.01748 0.178638,0.31516 0.194332,0.42132 0.194332,1.31451 0,0.89214 -0.01589,1.00004 -0.194332,1.31845 -0.106882,0.19073 -0.31019,0.42482 -0.451793,0.5202 l -0.25746,0.17342 0.237265,0.12269 c 0.430883,0.22282 0.562855,0.62847 0.632513,1.94422 0.03401,0.64239 0.08551,1.2292 0.114439,1.30402 0.04839,0.12514 -0.02585,0.13603 -0.927377,0.13603 h -0.979977 l -0.0063,-0.25263 c -0.0035,-0.13895 -0.03083,-0.67869 -0.06076,-1.19942 -0.06213,-1.08075 -0.151814,-1.2686 -0.605684,-1.2686 h -0.260016 v 1.36033 1.36032 h -0.932794 -0.932794 z"
         style="fill:#ffffff;stroke-width:0.07773284"
         id="path5253-7" /><path
         style="opacity:1;fill:#ffffff;fill-opacity:1;fill-rule:nonzero;stroke:none;stroke-width:0.37850234;stroke-linecap:round;stroke-linejoin:round;stroke-miterlimit:4;stroke-dasharray:none;stroke-opacity:1;paint-order:markers fill stroke"
         d="m 29.08239,169.53073 h 1.879412 v 1.22461 H 29.08239 Z"
         id="rect5255-8" /></g><g
       aria-label="SEQ.01"
       style="font-style:normal;font-variant:normal;font-weight:normal;font-stretch:normal;font-size:3.52777767px;line-height:1.25;font-family:Rubik;-inkscape-font-specification:Rubik;text-align:center;letter-spacing:0.52916664px;word-spacing:0px;text-anchor:middle;fill:#ffffff;fill-opacity:1;stroke:none;stroke-width:0.26458332"
       id="text12072-9"><path
         d="m 24.733932,172.71134 q 0.215195,0 0.377472,0.067 0.165806,0.067 0.278695,0.16581 0.116416,0.0953 0.176389,0.20813 0.05997,0.10937 0.0635,0.19756 0.0035,0.0317 -0.02117,0.0564 -0.02469,0.0212 -0.05644,0.0212 h -0.144639 q -0.03881,0 -0.0635,-0.0141 -0.02117,-0.0141 -0.04586,-0.0635 -0.01764,-0.0353 -0.05997,-0.0882 -0.0388,-0.0565 -0.109361,-0.10584 -0.06703,-0.0529 -0.165805,-0.0882 -0.09878,-0.0388 -0.229306,-0.0388 -0.09878,0 -0.1905,0.0247 -0.08819,0.0212 -0.15875,0.067 -0.07056,0.0459 -0.112889,0.11642 -0.04233,0.067 -0.04233,0.15875 0,0.0917 0.0388,0.15522 0.04233,0.0635 0.130528,0.11642 0.09172,0.0494 0.229306,0.0917 0.137583,0.0423 0.335139,0.0953 0.201083,0.0529 0.338666,0.11642 0.141111,0.0635 0.229306,0.14464 0.08819,0.0776 0.127,0.18344 0.04233,0.10231 0.04233,0.23284 0,0.15875 -0.07055,0.2928 -0.06703,0.13053 -0.1905,0.22578 -0.123473,0.0952 -0.299861,0.14817 -0.172862,0.0529 -0.388056,0.0529 -0.204611,0 -0.377472,-0.06 -0.172861,-0.06 -0.296334,-0.15522 -0.123472,-0.0952 -0.197555,-0.21167 -0.07056,-0.11642 -0.07408,-0.2293 0,-0.0317 0.02117,-0.0529 0.02469,-0.0247 0.05645,-0.0247 h 0.144639 q 0.03528,0 0.05997,0.0141 0.02822,0.0141 0.04939,0.0635 0.02117,0.0494 0.0635,0.10936 0.04586,0.0564 0.119944,0.10936 0.07408,0.0494 0.179917,0.0847 0.105833,0.0353 0.250472,0.0353 0.123472,0 0.232833,-0.0282 0.112889,-0.0282 0.197556,-0.0811 0.08467,-0.0529 0.134055,-0.127 0.04939,-0.0741 0.04939,-0.1658 0,-0.0917 -0.05644,-0.15523 -0.05645,-0.067 -0.162278,-0.11994 -0.105833,-0.0529 -0.261055,-0.0952 -0.151695,-0.0459 -0.345723,-0.0952 -0.176389,-0.0459 -0.299861,-0.10936 -0.123472,-0.067 -0.201083,-0.1517 -0.07761,-0.0847 -0.112889,-0.18697 -0.03175,-0.1023 -0.03175,-0.22225 0,-0.13053 0.05292,-0.254 0.05292,-0.12347 0.155222,-0.21872 0.105833,-0.0952 0.261055,-0.1517 0.15875,-0.06 0.370417,-0.06 z"
         style="fill:#ffffff;stroke-width:0.26458332"
         id="path13221" /><path
         d="m 28.209289,174.89856 q 0.03881,0 0.06703,0.0282 0.02822,0.0282 0.02822,0.067 v 0.127 q 0,0.0388 -0.02822,0.067 -0.02822,0.0282 -0.06703,0.0282 h -1.425222 q -0.0388,0 -0.06703,-0.0282 -0.02822,-0.0282 -0.02822,-0.067 v -2.27894 q 0,-0.0388 0.02822,-0.067 0.02822,-0.0282 0.06703,-0.0282 h 1.397 q 0.03881,0 0.06703,0.0282 0.02822,0.0282 0.02822,0.067 v 0.127 q 0,0.0388 -0.02822,0.067 -0.02822,0.0282 -0.06703,0.0282 h -1.157111 v 0.74436 h 1.0795 q 0.03881,0 0.06703,0.0282 0.02822,0.0282 0.02822,0.067 v 0.127 q 0,0.0388 -0.02822,0.067 -0.02822,0.0282 -0.06703,0.0282 h -1.0795 v 0.77258 z"
         style="fill:#ffffff;stroke-width:0.26458332"
         id="path13223" /><path
         d="m 29.186429,173.66737 q 0.0035,-0.19756 0.06703,-0.37042 0.06703,-0.17639 0.1905,-0.30339 0.123473,-0.13052 0.303389,-0.20461 0.179917,-0.0776 0.41275,-0.0776 0.232834,0 0.41275,0.0776 0.179917,0.0741 0.303389,0.20461 0.123472,0.127 0.186972,0.30339 0.06703,0.17286 0.07056,0.37042 0.01058,0.31397 0,0.62794 -0.0071,0.20109 -0.07761,0.37748 -0.06703,0.17639 -0.194028,0.30691 l 0.261056,0.35631 q 0.0035,0.007 0.0071,0.0141 0.0035,0.0106 0.0035,0.0212 0,0.0318 -0.02117,0.0529 -0.01764,0.0212 -0.04939,0.0212 h -0.165805 q -0.06703,0 -0.09878,-0.0317 -0.03175,-0.0282 -0.04939,-0.0494 l -0.148166,-0.20108 q -0.194028,0.0882 -0.440973,0.0882 -0.232833,0 -0.41275,-0.0741 -0.176389,-0.0741 -0.299861,-0.20461 -0.123472,-0.13053 -0.1905,-0.30339 -0.0635,-0.17639 -0.07055,-0.37395 -0.01058,-0.31397 0,-0.62794 z m 1.612194,0.0176 q -0.0071,-0.16581 -0.05644,-0.28928 -0.04586,-0.12347 -0.130528,-0.20461 -0.08467,-0.0811 -0.201083,-0.11994 -0.112889,-0.0423 -0.250473,-0.0423 -0.137583,0 -0.254,0.0423 -0.112889,0.0388 -0.197555,0.11994 -0.08467,0.0811 -0.134056,0.20461 -0.04939,0.12347 -0.05292,0.28928 -0.0071,0.15875 -0.0071,0.29633 0,0.13759 0.0071,0.29634 0.0035,0.1658 0.05292,0.28927 0.04939,0.12348 0.134056,0.20461 0.08467,0.0811 0.197555,0.12348 0.116417,0.0388 0.254,0.0388 0.137584,0 0.250473,-0.0388 0.116416,-0.0423 0.201083,-0.12348 0.08467,-0.0811 0.130528,-0.20461 0.04939,-0.12347 0.05644,-0.28927 0.0071,-0.15875 0.0071,-0.29634 0,-0.13758 -0.0071,-0.29633 z"
         style="fill:#ffffff;stroke-width:0.26458332"
         id="path13225" /><path
         d="m 32.372893,174.7892 q 0.03881,0 0.06703,0.0282 0.02822,0.0282 0.02822,0.067 v 0.23636 q 0,0.0388 -0.02822,0.067 -0.02822,0.0282 -0.06703,0.0282 h -0.236361 q -0.03881,0 -0.06703,-0.0282 -0.02822,-0.0282 -0.02822,-0.067 v -0.23636 q 0,-0.0388 0.02822,-0.067 0.02822,-0.0282 0.06703,-0.0282 z"
         style="fill:#ffffff;stroke-width:0.26458332"
         id="path13227" /><path
         d="m 35.179131,173.68501 q 0.0035,0.15875 0.0035,0.29986 0,0.13758 -0.0035,0.29633 -0.0035,0.20461 -0.05997,0.38453 -0.05292,0.17639 -0.162278,0.30692 -0.109361,0.13053 -0.278695,0.20461 -0.165805,0.0741 -0.398638,0.0741 -0.232834,0 -0.402167,-0.0741 -0.165806,-0.0741 -0.275167,-0.20461 -0.109361,-0.13053 -0.165805,-0.30692 -0.05292,-0.17992 -0.05644,-0.38453 -0.0035,-0.15875 -0.0035,-0.29633 0,-0.14111 0.0035,-0.29986 0.0035,-0.20461 0.05644,-0.381 0.05644,-0.17992 0.165805,-0.31045 0.109361,-0.13052 0.275167,-0.20461 0.169333,-0.0776 0.402167,-0.0776 0.232833,0 0.398638,0.0776 0.169334,0.0741 0.278695,0.20461 0.109361,0.13053 0.162278,0.31045 0.05644,0.17639 0.05997,0.381 z m -1.467556,0.59619 q 0.0071,0.33514 0.148167,0.49389 0.144639,0.15875 0.419806,0.15875 0.275166,0 0.416277,-0.15875 0.144639,-0.15875 0.151695,-0.49389 0.0035,-0.15875 0.0035,-0.29633 0,-0.14111 -0.0035,-0.29986 -0.0071,-0.33514 -0.151695,-0.49389 -0.141111,-0.16228 -0.416277,-0.16228 -0.275167,0 -0.419806,0.16228 -0.141111,0.15875 -0.148167,0.49389 -0.0035,0.15875 -0.0035,0.29986 0,0.13758 0.0035,0.29633 z"
         style="fill:#ffffff;stroke-width:0.26458332"
         id="path13229" /><path
         d="m 37.153859,175.12081 q 0,0.0388 -0.02822,0.067 -0.02822,0.0282 -0.06703,0.0282 H 36.91397 q -0.0388,0 -0.06703,-0.0282 -0.02822,-0.0282 -0.02822,-0.067 v -1.9438 l -0.5715,0.43392 q -0.03175,0.0282 -0.07055,0.0212 -0.03881,-0.007 -0.0635,-0.0353 l -0.08467,-0.10936 q -0.02469,-0.0317 -0.02117,-0.0705 0.0071,-0.0388 0.03881,-0.0635 l 0.754945,-0.57856 q 0.02822,-0.0212 0.05644,-0.0247 0.02822,-0.004 0.05644,-0.004 h 0.144639 q 0.03881,0 0.06703,0.0282 0.02822,0.0282 0.02822,0.067 z"
         style="fill:#ffffff;stroke-width:0.26458332"
         id="path13231" /></g><path
       d="m 7.2666258,187.59106 q 0.3844723,0 0.59669,0.20257 0.2122178,0.20257 0.2356444,0.46026 H 7.831621 q -0.045475,-0.19568 -0.1819009,-0.31005 -0.1350477,-0.11438 -0.3803383,-0.11438 -0.299034,0 -0.483691,0.21084 -0.1832789,0.20946 -0.1832789,0.64354 0,0.35554 0.1653644,0.5774 0.1667425,0.22049 0.4960934,0.22049 0.3031682,0 0.4616424,-0.23289 0.08406,-0.12265 0.1254014,-0.32246 h 0.2673392 q -0.035829,0.3197 -0.2370224,0.53605 -0.2411565,0.26045 -0.6504335,0.26045 -0.3527775,0 -0.592556,-0.21359 -0.3155705,-0.2825 -0.3155705,-0.8723 0,-0.44786 0.2370224,-0.73449 0.2563149,-0.31144 0.7069331,-0.31144 z m -0.055122,0 z m 1.2402334,0.0551 h 0.2742294 v 1.78318 h 1.0252596 v 0.24116 h -1.299489 z m 1.5695843,0 h 0.267339 v 0.98667 l 0.986675,-0.98667 h 0.37896 l -0.841981,0.8158 0.865408,1.20854 h -0.356912 l -0.708311,-1.01562 -0.323839,0.31006 v 0.70556 h -0.267339 z"
       id="text1"
       style="font-size:2.82222px;font-family:Helvetica;-inkscape-font-specification:Helvetica;text-align:center;text-anchor:middle;fill:#ffffff;stroke-width:0.264583"
       aria-label="CLK" /><path
       d="m 18.236545,188.5736 q 0.192925,0 0.304546,-0.0772 0.112999,-0.0772 0.112999,-0.27836 0,-0.21636 -0.157096,-0.2949 -0.08406,-0.0413 -0.22462,-0.0413 h -0.669726 v 0.69178 z m -0.908127,-0.92742 h 0.937066 q 0.23151,0 0.381716,0.0675 0.285254,0.12954 0.285254,0.47818 0,0.1819 -0.07579,0.29766 -0.07441,0.11575 -0.209462,0.18603 0.118511,0.0482 0.177767,0.12678 0.06063,0.0786 0.06752,0.25494 l 0.0096,0.27147 q 0.0041,0.11576 0.01929,0.17226 0.02481,0.0965 0.08819,0.12402 v 0.0455 h -0.336241 q -0.01378,-0.0262 -0.02205,-0.0675 -0.0083,-0.0413 -0.01378,-0.15985 l -0.01654,-0.33762 q -0.0096,-0.19844 -0.14745,-0.26596 -0.07855,-0.0372 -0.246668,-0.0372 h -0.624251 v 0.86817 h -0.27423 z m 2.184189,1.37115 q 0.0096,0.17225 0.0813,0.27974 0.136426,0.20119 0.480935,0.20119 0.15434,0 0.28112,-0.0441 0.245291,-0.0854 0.245291,-0.30593 0,-0.16536 -0.103353,-0.23564 -0.104731,-0.0689 -0.327973,-0.11989 l -0.274229,-0.062 q -0.268718,-0.0606 -0.380339,-0.13367 -0.192925,-0.12678 -0.192925,-0.37896 0,-0.27286 0.188791,-0.44787 0.188791,-0.17501 0.534679,-0.17501 0.318326,0 0.54019,0.15434 0.223242,0.15297 0.223242,0.49058 h -0.257693 q -0.02067,-0.1626 -0.08819,-0.24942 -0.125402,-0.15847 -0.425814,-0.15847 -0.242534,0 -0.348643,0.10197 -0.106109,0.10197 -0.106109,0.23702 0,0.14883 0.124023,0.21773 0.08131,0.0441 0.367936,0.11025 l 0.283876,0.0648 q 0.205328,0.0469 0.316949,0.12816 0.192925,0.14194 0.192925,0.41203 0,0.33624 -0.245291,0.48094 -0.243912,0.14469 -0.567751,0.14469 -0.377582,0 -0.591178,-0.19292 -0.213596,-0.19155 -0.209462,-0.51952 z m 0.553971,-1.42627 z m 2.622405,0.0551 v 0.24116 h -0.682129 v 1.78318 h -0.278363 v -1.78318 h -0.682129 v -0.24116 z"
       id="text2"
       style="font-size:2.82222px;font-family:Helvetica;-inkscape-font-specification:Helvetica;text-align:center;text-anchor:middle;fill:#ffffff;stroke-width:0.264583"
       aria-label="RST" /><path
       d="m 28.250542,186.25219 q 0.384472,0 0.59669,0.20257 0.212218,0.20257 0.235644,0.46027 h -0.267339 q -0.04547,-0.19568 -0.181901,-0.31006 -0.135047,-0.11438 -0.380338,-0.11438 -0.299034,0 -0.483691,0.21084 -0.183279,0.20946 -0.183279,0.64355 0,0.35553 0.165364,0.57739 0.166743,0.22049 0.496094,0.22049 0.303168,0 0.461642,-0.23289 0.08406,-0.12264 0.125402,-0.32246 h 0.267339 q -0.03583,0.3197 -0.237023,0.53606 -0.241156,0.26045 -0.650433,0.26045 -0.352778,0 -0.592556,-0.2136 -0.315571,-0.2825 -0.315571,-0.8723 0,-0.44786 0.237023,-0.73449 0.256315,-0.31144 0.706933,-0.31144 z m -0.05512,0 z m 1.240234,0.0551 h 0.274229 v 1.78318 h 1.02526 v 0.24116 h -1.299489 z m 2.510784,0.92742 q 0.192925,0 0.304546,-0.0772 0.112999,-0.0772 0.112999,-0.27836 0,-0.21635 -0.157096,-0.2949 -0.08406,-0.0413 -0.22462,-0.0413 H 31.31254 v 0.69177 z m -0.908127,-0.92742 h 0.937065 q 0.231511,0 0.381717,0.0675 0.285253,0.12953 0.285253,0.47818 0,0.1819 -0.07579,0.29765 -0.07441,0.11576 -0.209461,0.18604 0.118511,0.0482 0.177766,0.12678 0.06063,0.0785 0.06752,0.25493 l 0.0096,0.27148 q 0.0041,0.11575 0.01929,0.17225 0.02481,0.0965 0.08819,0.12402 v 0.0455 h -0.336241 q -0.01378,-0.0262 -0.02205,-0.0675 -0.0083,-0.0413 -0.01378,-0.15986 l -0.01654,-0.33762 q -0.0096,-0.19843 -0.14745,-0.26596 -0.07855,-0.0372 -0.246669,-0.0372 H 31.31254 v 0.86816 h -0.274229 z"
       id="text3"
       style="font-size:2.82222px;font-family:Helvetica;-inkscape-font-specification:Helvetica;text-align:center;text-anchor:middle;fill:#ffffff;stroke-width:0.264583"
       aria-label="CLR" /><path
       d="m 28.761196,207.14385 q 0.0096,0.17226 0.0813,0.27974 0.136426,0.2012 0.480935,0.2012 0.15434,0 0.28112,-0.0441 0.24529,-0.0854 0.24529,-0.30592 0,-0.16537 -0.103353,-0.23565 -0.10473,-0.0689 -0.327972,-0.11989 l -0.27423,-0.062 q -0.268717,-0.0606 -0.380338,-0.13367 -0.192925,-0.12678 -0.192925,-0.37896 0,-0.27285 0.188791,-0.44786 0.188791,-0.17501 0.534678,-0.17501 0.318327,0 0.540191,0.15434 0.223242,0.15296 0.223242,0.49058 h -0.257693 q -0.02067,-0.16261 -0.0882,-0.24942 -0.125401,-0.15848 -0.425813,-0.15848 -0.242535,0 -0.348643,0.10198 -0.106109,0.10197 -0.106109,0.23702 0,0.14883 0.124023,0.21773 0.0813,0.0441 0.367936,0.11024 l 0.283876,0.0648 q 0.205327,0.0468 0.316948,0.12816 0.192925,0.14193 0.192925,0.41203 0,0.33624 -0.24529,0.48093 -0.243913,0.1447 -0.567752,0.1447 -0.377582,0 -0.591178,-0.19293 -0.213595,-0.19154 -0.209461,-0.51952 z m 0.553971,-1.42627 z m 2.002288,0 q 0.384472,0 0.59669,0.20258 0.212217,0.20257 0.235644,0.46026 H 31.88245 q -0.04547,-0.19568 -0.181901,-0.31006 -0.135048,-0.11437 -0.380338,-0.11437 -0.299034,0 -0.483691,0.21083 -0.183279,0.20947 -0.183279,0.64355 0,0.35553 0.165364,0.5774 0.166743,0.22048 0.496094,0.22048 0.303168,0 0.461642,-0.23289 0.08406,-0.12264 0.125401,-0.32246 h 0.26734 q -0.03583,0.31971 -0.237023,0.53606 -0.241156,0.26045 -0.650433,0.26045 -0.352778,0 -0.592556,-0.2136 -0.315571,-0.2825 -0.315571,-0.8723 0,-0.44786 0.237023,-0.73449 0.256315,-0.31144 0.706933,-0.31144 z m -0.05512,0 z m 2.279273,1.24988 -0.307302,-0.89434 -0.326595,0.89434 z m -0.450618,-1.19475 h 0.310059 l 0.734494,2.02433 h -0.300413 l -0.205327,-0.60633 h -0.80064 l -0.219108,0.60633 h -0.281119 z m 1.293978,0 h 0.274229 v 1.78318 h 1.02526 v 0.24115 h -1.299489 z m 1.595766,0 h 1.475878 v 0.24804 h -1.208539 v 0.61461 h 1.117589 v 0.23426 h -1.117589 v 0.68627 h 1.22921 v 0.24115 h -1.496549 z m 0.748274,0 z"
       id="text4"
       style="font-size:2.82222px;font-family:Helvetica;-inkscape-font-specification:Helvetica;text-align:center;text-anchor:middle;fill:#ffffff;stroke-width:0.264583"
       aria-label="SCALE" /><path
       d="m 29.695504,226.72649 q 0.0096,0.17226 0.08131,0.27975 0.136425,0.20119 0.480935,0.20119 0.15434,0 0.281119,-0.0441 0.245291,-0.0854 0.245291,-0.30592 0,-0.16537 -0.103353,-0.23565 -0.104731,-0.0689 -0.327973,-0.11989 l -0.274229,-0.062 q -0.268718,-0.0606 -0.380339,-0.13367 -0.192925,-0.12678 -0.192925,-0.37896 0,-0.27285 0.188791,-0.44786 0.188791,-0.17501 0.534679,-0.17501 0.318326,0 0.54019,0.15434 0.223242,0.15296 0.223242,0.49058 h -0.257693 q -0.02067,-0.16261 -0.08819,-0.24942 -0.125401,-0.15848 -0.425813,-0.15848 -0.242535,0 -0.348644,0.10198 -0.106109,0.10197 -0.106109,0.23702 0,0.14883 0.124024,0.21773 0.0813,0.0441 0.367936,0.11024 l 0.283875,0.0648 q 0.205328,0.0469 0.316949,0.12816 0.192925,0.14194 0.192925,0.41203 0,0.33624 -0.245291,0.48094 -0.243912,0.14469 -0.567751,0.14469 -0.377582,0 -0.591178,-0.19293 -0.213596,-0.19154 -0.209462,-0.51952 z m 0.553971,-1.42626 z m 2.622405,0.0551 v 0.24115 h -0.682128 v 1.78318 H 31.911388 V 225.5965 H 31.22926 v -0.24115 z m 0.276985,0 h 1.475878 v 0.24804 h -1.208538 v 0.61461 h 1.117588 v 0.23427 h -1.117588 v 0.68626 h 1.229209 v 0.24115 h -1.496549 z m 0.748275,0 z m 1.134124,0 h 0.910883 q 0.270095,0 0.435459,0.15296 0.165365,0.15158 0.165365,0.42719 0,0.23702 -0.14745,0.41341 -0.14745,0.17501 -0.453374,0.17501 h -0.636654 v 0.85576 h -0.274229 z m 1.234721,0.58153 q 0,-0.22324 -0.165364,-0.30317 -0.09095,-0.0427 -0.249425,-0.0427 h -0.545703 v 0.70142 h 0.545703 q 0.184657,0 0.299034,-0.0785 0.115755,-0.0785 0.115755,-0.27699 z"
       id="text5"
       style="font-size:2.82222px;font-family:Helvetica;-inkscape-font-specification:Helvetica;text-align:center;text-anchor:middle;fill:#ffffff;stroke-width:0.264583"
       aria-label="STEP" /><path
       d="m 7.050766,269.74107 h 0.2769855 v 0.83647 h 1.0528204 v -0.83647 h 0.2769854 v 2.02434 H 8.3805719 V 270.8187 H 7.3277515 v 0.94671 H 7.050766 Z m 2.0932384,0 h 0.2769855 v 2.02434 H 9.1440044 Z m 2.1952136,0 v 0.24116 h -0.682129 v 1.78318 h -0.278363 v -1.78318 H 9.6965974 v -0.24116 z m 0.429947,1.37115 q 0.0096,0.17226 0.0813,0.27974 0.136426,0.2012 0.480935,0.2012 0.15434,0 0.28112,-0.0441 0.245291,-0.0854 0.245291,-0.30592 0,-0.16537 -0.103353,-0.23565 -0.104731,-0.0689 -0.327973,-0.11989 l -0.27423,-0.062 q -0.268717,-0.0606 -0.380338,-0.13367 -0.192925,-0.12678 -0.192925,-0.37896 0,-0.27285 0.188791,-0.44786 0.188791,-0.17501 0.534679,-0.17501 0.318326,0 0.54019,0.15434 0.223242,0.15296 0.223242,0.49058 h -0.257693 q -0.02067,-0.16261 -0.08819,-0.24943 -0.125402,-0.15847 -0.425814,-0.15847 -0.242534,0 -0.348643,0.10197 -0.106109,0.10198 -0.106109,0.23703 0,0.14882 0.124023,0.21773 0.0813,0.0441 0.367936,0.11024 l 0.283876,0.0648 q 0.205328,0.0469 0.316949,0.12815 0.192925,0.14194 0.192925,0.41204 0,0.33624 -0.245291,0.48093 -0.243912,0.1447 -0.567751,0.1447 -0.377582,0 -0.591178,-0.19293 -0.213596,-0.19155 -0.209462,-0.51952 z m 0.553971,-1.42627 z m 1.988508,0.68213 v -0.19017 q 0.268717,-0.0262 0.374826,-0.0868 0.106109,-0.062 0.158474,-0.29077 h 0.195681 v 1.96508 h -0.264583 v -1.39733 z"
       id="text6"
       style="font-size:2.82222px;font-family:Helvetica;-inkscape-font-specification:Helvetica;text-align:center;text-anchor:middle;fill:#ffffff;stroke-width:0.264583"
       aria-label="HITS 1" /><path
       d="m 20.882236,269.74107 h 0.276985 v 0.83647 h 1.05282 v -0.83647 h 0.276986 v 2.02434 h -0.276986 v -0.94671 h -1.05282 v 0.94671 h -0.276985 z m 2.093238,0 h 0.276985 v 2.02434 h -0.276985 z m 2.195213,0 v 0.24116 h -0.682128 v 1.78318 h -0.278364 v -1.78318 h -0.682128 v -0.24116 z m 0.429948,1.37115 q 0.0096,0.17226 0.0813,0.27974 0.136426,0.2012 0.480935,0.2012 0.15434,0 0.281119,-0.0441 0.245291,-0.0854 0.245291,-0.30592 0,-0.16537 -0.103353,-0.23565 -0.104731,-0.0689 -0.327973,-0.11989 l -0.274229,-0.062 q -0.268717,-0.0606 -0.380338,-0.13367 -0.192925,-0.12678 -0.192925,-0.37896 0,-0.27285 0.188791,-0.44786 0.188791,-0.17501 0.534678,-0.17501 0.318327,0 0.540191,0.15434 0.223242,0.15296 0.223242,0.49058 h -0.257693 q -0.02067,-0.16261 -0.08819,-0.24943 -0.125401,-0.15847 -0.425813,-0.15847 -0.242535,0 -0.348644,0.10197 -0.106108,0.10198 -0.106108,0.23703 0,0.14882 0.124023,0.21773 0.0813,0.0441 0.367936,0.11024 l 0.283876,0.0648 q 0.205327,0.0469 0.316948,0.12815 0.192925,0.14194 0.192925,0.41204 0,0.33624 -0.24529,0.48093 -0.243913,0.1447 -0.567752,0.1447 -0.377582,0 -0.591178,-0.19293 -0.213595,-0.19155 -0.209461,-0.51952 z m 0.553971,-1.42627 z m 1.806606,2.07946 q 0.01378,-0.25494 0.104731,-0.44373 0.09233,-0.18879 0.35829,-0.34313 l 0.264583,-0.15296 q 0.177767,-0.10335 0.249425,-0.17639 0.112999,-0.11438 0.112999,-0.26183 0,-0.17225 -0.103353,-0.27285 -0.103353,-0.10197 -0.275607,-0.10197 -0.254937,0 -0.352778,0.19292 -0.05236,0.10336 -0.05788,0.28664 h -0.252181 q 0.0041,-0.2577 0.09508,-0.42031 0.161231,-0.28663 0.56913,-0.28663 0.338997,0 0.494715,0.18328 0.157096,0.18328 0.157096,0.4079 0,0.23702 -0.166742,0.40514 -0.09646,0.0978 -0.345888,0.23703 l -0.188791,0.10473 q -0.135047,0.0744 -0.212217,0.14193 -0.137804,0.11989 -0.173633,0.26597 h 1.077625 v 0.23426 z"
       id="text7"
       style="font-size:2.82222px;font-family:Helvetica;-inkscape-font-specification:Helvetica;text-align:center;text-anchor:middle;fill:#ffffff;stroke-width:0.264583"
       aria-label="HITS 2" /><path
       d="m 34.86877,269.74107 h 0.276985 v 0.83647 h 1.052821 v -0.83647 h 0.276985 v 2.02434 h -0.276985 v -0.94671 h -1.052821 v 0.94671 H 34.86877 Z m 2.093238,0 h 0.276986 v 2.02434 h -0.276986 z m 2.195213,0 v 0.24116 h -0.682128 v 1.78318 h -0.278364 v -1.78318 h -0.682128 v -0.24116 z m 0.429948,1.37115 q 0.0096,0.17226 0.0813,0.27974 0.136426,0.2012 0.480935,0.2012 0.15434,0 0.28112,-0.0441 0.24529,-0.0854 0.24529,-0.30592 0,-0.16537 -0.103353,-0.23565 -0.10473,-0.0689 -0.327972,-0.11989 l -0.27423,-0.062 q -0.268717,-0.0606 -0.380338,-0.13367 -0.192925,-0.12678 -0.192925,-0.37896 0,-0.27285 0.188791,-0.44786 0.188791,-0.17501 0.534678,-0.17501 0.318327,0 0.540191,0.15434 0.223242,0.15296 0.223242,0.49058 h -0.257693 q -0.02067,-0.16261 -0.0882,-0.24943 -0.125401,-0.15847 -0.425813,-0.15847 -0.242535,0 -0.348643,0.10197 -0.106109,0.10198 -0.106109,0.23703 0,0.14882 0.124023,0.21773 0.0813,0.0441 0.367936,0.11024 l 0.283876,0.0648 q 0.205327,0.0469 0.316948,0.12815 0.192925,0.14194 0.192925,0.41204 0,0.33624 -0.24529,0.48093 -0.243913,0.1447 -0.567752,0.1447 -0.377582,0 -0.591177,-0.19293 -0.213596,-0.19155 -0.209462,-0.51952 z m 0.553971,-1.42627 z m 2.451528,2.1332 q -0.350021,0 -0.508496,-0.19154 -0.157096,-0.19293 -0.157096,-0.46853 h 0.259071 q 0.01654,0.19154 0.07166,0.27836 0.09646,0.15572 0.348643,0.15572 0.195682,0 0.314193,-0.10473 0.118511,-0.10473 0.118511,-0.2701 0,-0.20395 -0.125401,-0.28525 -0.124024,-0.0813 -0.345888,-0.0813 -0.0248,0 -0.05099,0.001 -0.02481,0 -0.05099,0.001 v -0.21911 q 0.03859,0.004 0.06477,0.006 0.02618,0.001 0.0565,0.001 0.139182,0 0.228754,-0.0441 0.157096,-0.0772 0.157096,-0.2756 0,-0.14745 -0.104731,-0.22738 -0.10473,-0.0799 -0.243912,-0.0799 -0.248047,0 -0.343131,0.16537 -0.05237,0.0909 -0.05926,0.25907 h -0.245291 q 0,-0.22049 0.08819,-0.37483 0.151584,-0.2756 0.5333,-0.2756 0.30179,0 0.467155,0.13504 0.165364,0.13367 0.165364,0.38861 0,0.1819 -0.09784,0.2949 -0.06063,0.0703 -0.157097,0.11024 0.155718,0.0427 0.242535,0.16537 0.08819,0.12126 0.08819,0.29765 0,0.2825 -0.186035,0.46027 -0.186035,0.17776 -0.527788,0.17776 z"
       id="text8"
       style="font-size:2.82222px;font-family:Helvetica;-inkscape-font-specification:Helvetica;text-align:center;text-anchor:middle;fill:#ffffff;stroke-width:0.264583"
       aria-label="HITS 3" /><path
       d="m 9.3830977,283.42732 v 0.24116 H 8.7009693 v 1.78318 H 8.4226058 v -1.78318 H 7.7404774 v -0.24116 z m 1.0404183,0.62701 v -0.19017 q 0.268717,-0.0262 0.374826,-0.0868 0.106109,-0.062 0.158474,-0.29077 h 0.195681 v 1.96508 h -0.264583 v -1.39733 z"
       id="text9"
       style="font-size:2.82222px;font-family:Helvetica;-inkscape-font-specification:Helvetica;text-align:center;text-anchor:middle;fill:#ffffff;stroke-width:0.264583"
       aria-label="T 1" /><path
       d="m 18.457675,283.42732 v 0.24116 h -0.682128 v 1.78318 h -0.278364 v -1.78318 h -0.682128 v -0.24116 z m 0.858517,2.02434 q 0.01378,-0.25494 0.104731,-0.44373 0.09233,-0.18879 0.35829,-0.34313 l 0.264583,-0.15296 q 0.177767,-0.10335 0.249425,-0.17639 0.112999,-0.11438 0.112999,-0.26183 0,-0.17225 -0.103353,-0.27285 -0.103353,-0.10197 -0.275608,-0.10197 -0.254936,0 -0.352777,0.19292 -0.05237,0.10335 -0.05788,0.28663 h -0.25218 q 0.0041,-0.25769 0.09508,-0.4203 0.16123,-0.28663 0.569129,-0.28663 0.338998,0 0.494716,0.18328 0.157096,0.18328 0.157096,0.4079 0,0.23702 -0.166742,0.40514 -0.09646,0.0978 -0.345888,0.23702 l -0.188791,0.10473 q -0.135048,0.0744 -0.212218,0.14194 -0.137803,0.11989 -0.173632,0.26596 h 1.077625 v 0.23427 z"
       id="text10"
       style="font-size:2.82222px;font-family:Helvetica;-inkscape-font-specification:Helvetica;text-align:center;text-anchor:middle;fill:#ffffff;stroke-width:0.264583"
       aria-label="T 2" /><path
       d="m 27.453517,283.42732 v 0.24116 h -0.682128 v 1.78318 h -0.278364 v -1.78318 h -0.682128 v -0.24116 z m 1.503439,2.07808 q -0.350022,0 -0.508496,-0.19154 -0.157096,-0.19293 -0.157096,-0.46854 h 0.259071 q 0.01654,0.19155 0.07166,0.27837 0.09646,0.15572 0.348643,0.15572 0.195681,0 0.314192,-0.10474 0.118512,-0.10473 0.118512,-0.27009 0,-0.20395 -0.125402,-0.28525 -0.124023,-0.0813 -0.345887,-0.0813 -0.02481,0 -0.05099,0.001 -0.0248,0 -0.05099,0.001 v -0.21911 q 0.03858,0.004 0.06477,0.006 0.02618,0.001 0.0565,0.001 0.139182,0 0.228755,-0.0441 0.157096,-0.0772 0.157096,-0.2756 0,-0.14745 -0.104731,-0.22738 -0.104731,-0.0799 -0.243913,-0.0799 -0.248046,0 -0.343131,0.16537 -0.05237,0.091 -0.05926,0.25907 h -0.245291 q 0,-0.22049 0.08819,-0.37483 0.151584,-0.27561 0.533301,-0.27561 0.30179,0 0.467154,0.13505 0.165365,0.13367 0.165365,0.38861 0,0.1819 -0.09784,0.2949 -0.06063,0.0703 -0.157096,0.11024 0.155718,0.0427 0.242534,0.16537 0.08819,0.12126 0.08819,0.29765 0,0.2825 -0.186035,0.46027 -0.186035,0.17776 -0.527788,0.17776 z"
       id="text11"
       style="font-size:2.82222px;font-family:Helvetica;-inkscape-font-specification:Helvetica;text-align:center;text-anchor:middle;fill:#ffffff;stroke-width:0.264583"
       aria-label="T 3" /><path
       d="m 38.357821,283.3722 q 0.536056,0 0.793749,0.34451 0.201194,0.26872 0.201194,0.68764 0,0.45338 -0.230132,0.75379 -0.270096,0.35278 -0.770323,0.35278 -0.467155,0 -0.734494,-0.30868 -0.2384,-0.29766 -0.2384,-0.75241 0,-0.41066 0.203949,-0.7028 0.261827,-0.37483 0.774457,-0.37483 z m 0.02756,1.89343 q 0.362423,0 0.523654,-0.25908 0.162608,-0.26044 0.162608,-0.59806 0,-0.35692 -0.187413,-0.57465 -0.186035,-0.21773 -0.509874,-0.21773 -0.314192,0 -0.512629,0.21636 -0.198438,0.21497 -0.198438,0.63527 0,0.33624 0.169499,0.56775 0.170876,0.23014 0.552593,0.23014 z m -0.01929,-1.89343 z m 1.610926,0.0551 v 1.25126 q 0,0.22049 0.08268,0.36656 0.122645,0.22049 0.413411,0.22049 0.348643,0 0.474045,-0.23841 0.06752,-0.12953 0.06752,-0.34864 v -1.25126 h 0.278364 v 1.13688 q 0,0.37345 -0.100597,0.57465 -0.184657,0.36655 -0.697287,0.36655 -0.512629,0 -0.695908,-0.36655 -0.100597,-0.2012 -0.100597,-0.57465 v -1.13688 z m 0.51952,0 z m 2.694062,0 v 0.24116 h -0.682128 v 1.78318 h -0.278364 v -1.78318 h -0.682128 v -0.24116 z"
       id="text12"
       style="font-size:2.82222px;font-family:Helvetica;-inkscape-font-specification:Helvetica;text-align:center;text-anchor:middle;fill:#ffffff;stroke-width:0.264583"
       aria-label="OUT" /><circle
       style="fill:#ffffff;fill-opacity:1;stroke-width:0.323692"
       id="path12"
       cx="49.984558"
       cy="183.5995"
       r="3.5489578" /><circle
       style="fill:#666666;fill-opacity:1;stroke-width:0.323695"
       id="circle12"
       cx="49.984558"
       cy="192.59521"
       r="3.549" /><circle
       style="fill:#ffffff;fill-opacity:1;stroke-width:0.323695"
       id="circle13"
       cx="49.984558"
       cy="201.59093"
       r="3.549" /><circle
       style="fill:#666666;fill-opacity:1;stroke-width:0.323695"
       id="circle14"
       cx="49.984558"
       cy="210.58672"
       r="3.549" /><circle
       style="fill:#ffffff;fill-opacity:1;stroke-width:0.323695"
       id="circle15"
       cx="49.984558"
       cy="219.58258"
       r="3.549" /><circle
       style="fill:#ffffff;fill-opacity:1;stroke-width:0.323695"
       id="circle16"
       cx="49.984558"
       cy="228.57845"
       r="3.549" /><circle
       style="fill:#666666;fill-opacity:1;stroke-width:0.323695"
       id="circle17"
       cx="49.984558"
       cy="237.57431"
       r="3.549" /><circle
       style="fill:#ffffff;fill-opacity:1;stroke-width:0.323695"
       id="circle18"
       cx="49.984558"
       cy="246.57018"
       r="3.549" /><circle
       style="fill:#666666;fill-opacity:1;stroke-width:0.323695"
       id="circle19"
       cx="49.984558"
       cy="255.56599"
       r="3.549" /><circle
       style="fill:#ffffff;fill-opacity:1;stroke-width:0.323695"
       id="circle20"
       cx="49.984558"
       cy="264.5618"
       r="3.549" /><circle
       style="fill:#666666;fill-opacity:1;stroke-width:0.323695"
       id="circle21"
       cx="49.984558"
       cy="273.55759"
       r="3.549" /><circle
       style="fill:#ffffff;fill-opacity:1;stroke-width:0.323695"
       id="circle22"
       cx="49.984558"
       cy="282.55338"
       r="3.549" /><rect
       style="fill:#333333;fill-opacity:1;stroke:#ffffff;stroke-width:0.264583"
       id="rect22"
       width="4.1755428"
       height="28.592527"
       x="11.867996"
       y="196.20691"
       ry="2.3446062" /><path
       d="m 9.0325462,192.91618 q 0.2139408,0 0.3700038,0.0827 0.2263432,0.11886 0.2769861,0.41651 H 9.4759307 q -0.037207,-0.16639 -0.153996,-0.24184 -0.1167889,-0.0765 -0.2945561,-0.0765 -0.2108402,0 -0.3555344,0.15813 -0.1436607,0.15813 -0.1436607,0.47129 0,0.27078 0.118856,0.44131 0.1188559,0.1695 0.3875738,0.1695 0.2056725,0 0.3400314,-0.11885 0.1353925,-0.11989 0.1384931,-0.38654 H 9.0377139 v -0.17054 h 0.666627 v 0.81236 H 9.572049 l -0.049609,-0.19534 q -0.1043866,0.11472 -0.185002,0.15917 -0.1353924,0.0765 -0.3441655,0.0765 -0.2697514,0 -0.4640551,-0.17467 -0.2118737,-0.21911 -0.2118737,-0.60151 0,-0.38138 0.2067061,-0.60669 0.1963707,-0.21497 0.5084968,-0.21497 z m -0.034107,-0.002 z m 1.0438653,0.0413 h 1.106911 v 0.18604 H 10.24281 v 0.46095 h 0.838193 v 0.1757 H 10.24281 v 0.5147 h 0.921909 v 0.18087 h -1.122414 z m 0.561207,0 z m 0.830959,0 h 0.242879 l 0.76688,1.2299 v -1.2299 h 0.195337 v 1.51826 H 12.40909 l -0.778249,-1.22887 v 1.22887 h -0.19637 z m 0.589112,0 z m 0.959116,0 h 1.106911 v 0.18604 h -0.906406 v 0.46095 h 0.838193 v 0.1757 h -0.838193 v 0.5147 h 0.921909 v 0.18087 h -1.122414 z m 0.561207,0 z m 1.536859,0.69557 q 0.144694,0 0.22841,-0.0579 0.08475,-0.0579 0.08475,-0.20877 0,-0.16227 -0.117823,-0.22118 -0.06305,-0.031 -0.168465,-0.031 h -0.502296 v 0.51883 z m -0.681096,-0.69557 h 0.7028 q 0.173633,0 0.286288,0.0506 0.213941,0.0971 0.213941,0.35863 0,0.13643 -0.05684,0.22324 -0.05581,0.0868 -0.157097,0.13953 0.08888,0.0362 0.133326,0.0951 0.04547,0.0589 0.05064,0.1912 l 0.0072,0.2036 q 0.0031,0.0868 0.01447,0.12919 0.0186,0.0724 0.06615,0.093 v 0.0341 h -0.252182 q -0.01033,-0.0196 -0.01654,-0.0506 -0.0062,-0.031 -0.01033,-0.11989 l -0.0124,-0.25322 q -0.0072,-0.14883 -0.110588,-0.19947 -0.05891,-0.0279 -0.185001,-0.0279 h -0.46819 v 0.65112 h -0.205672 z m 2.283068,0.89607 -0.230477,-0.67076 -0.244947,0.67076 z m -0.337964,-0.89607 h 0.232544 l 0.550872,1.51826 h -0.22531 l -0.153996,-0.45475 h -0.600481 l -0.164331,0.45475 H 15.77323 Z m 1.919265,0 v 0.18087 h -0.511597 v 1.33739 h -0.208773 v -1.33739 H 17.03207 v -0.18087 z m 0.207739,0 h 1.106911 v 0.18604 h -0.906406 v 0.46095 h 0.838193 v 0.1757 h -0.838193 v 0.5147 h 0.921909 v 0.18087 h -1.122414 z m 0.561207,0 z"
       id="text22"
       style="font-size:2.11667px;font-family:Helvetica;-inkscape-font-specification:Helvetica;text-align:center;text-anchor:middle;fill:#ffffff;stroke-width:0.264583"
       aria-label="GENERATE" /><path
       d="m 11.158518,226.71778 h 0.205673 v 1.33739 h 0.768946 v 0.18087 h -0.974619 z m 1.83245,-0.0413 q 0.402043,0 0.595313,0.25838 0.150895,0.20154 0.150895,0.51574 0,0.34003 -0.172599,0.56534 -0.202572,0.26458 -0.577744,0.26458 -0.350366,0 -0.550871,-0.23151 -0.178801,-0.22324 -0.178801,-0.56431 0,-0.30799 0.152963,-0.5271 0.19637,-0.28112 0.580844,-0.28112 z m 0.02067,1.42007 q 0.271819,0 0.392742,-0.1943 0.121956,-0.19534 0.121956,-0.44855 0,-0.26769 -0.14056,-0.43099 -0.139527,-0.16329 -0.382406,-0.16329 -0.235645,0 -0.384473,0.16226 -0.148829,0.16123 -0.148829,0.47646 0,0.25218 0.127125,0.42581 0.128157,0.1726 0.414445,0.1726 z m -0.01447,-1.42007 z m 1.624709,0 q 0.288355,0 0.447519,0.15193 0.159163,0.15193 0.176734,0.3452 h -0.200505 q -0.03411,-0.14676 -0.136426,-0.23255 -0.101286,-0.0858 -0.285255,-0.0858 -0.224276,0 -0.362769,0.15813 -0.137459,0.1571 -0.137459,0.48266 0,0.26665 0.124023,0.43305 0.125057,0.16536 0.372071,0.16536 0.227377,0 0.346233,-0.17466 0.06305,-0.092 0.09405,-0.24185 H 15.2606 q -0.02687,0.23978 -0.177767,0.40205 -0.180868,0.19533 -0.487827,0.19533 -0.264583,0 -0.444418,-0.16019 -0.236678,-0.21188 -0.236678,-0.65423 0,-0.3359 0.177767,-0.55087 0.192237,-0.23358 0.530201,-0.23358 z m -0.04134,0 z m 0.930177,0.0413 h 0.200505 v 0.74001 l 0.740008,-0.74001 h 0.284221 l -0.631487,0.61185 0.649057,0.90641 h -0.267685 l -0.531234,-0.76171 -0.24288,0.23254 v 0.52917 h -0.200505 z"
       id="text23"
       style="font-size:2.11667px;font-family:Helvetica;-inkscape-font-specification:Helvetica;text-align:center;text-anchor:middle;fill:#ffffff;stroke-width:0.264583"
       aria-label="LOCK" /></g></svg>
